Coordinates
version=1
nRows=13
nColumns=40
inDegrees=yes

Units are S.I. units (second, meters, Newtons, ...)
Angles are in degrees.

endheader
time	pelvis_tilt	pelvis_list	pelvis_rotation	pelvis_tx	pelvis_ty	pelvis_tz	hip_flexion_r	hip_adduction_r	hip_rotation_r	knee_angle_r	knee_angle_r_beta	ankle_angle_r	subtalar_angle_r	mtp_angle_r	hip_flexion_l	hip_adduction_l	hip_rotation_l	knee_angle_l	knee_angle_l_beta	ankle_angle_l	subtalar_angle_l	mtp_angle_l	lumbar_extension	lumbar_bending	lumbar_rotation	arm_flex_r	arm_add_r	arm_rot_r	elbow_flex_r	pro_sup_r	wrist_flex_r	wrist_dev_r	arm_flex_l	arm_add_l	arm_rot_l	elbow_flex_l	pro_sup_l	wrist_flex_l	wrist_dev_l
     58.17000000	     -6.81214268	     -6.93365776	      1.20785863	      1.08391788	      0.92968631	      0.52512428	     12.43531174	      6.25117600	    -19.07025195	     12.74864224	     12.74864224	      9.75518023	      8.70501293	     -2.70266995	     40.99681744	    -17.12664262	      1.81708927	     58.49484756	     58.49484756	      7.20522189	    -17.85922466	     11.09049954	    -12.98290357	      5.76887844	      3.63108725	     25.56967233	    -18.95086252	      5.77524061	     50.61705173	     45.22981289	      0.00000000	      0.00000000	      0.50099581	     -7.58443741	     -6.06878036	     38.54432453	     47.44627720	      0.00000000	      0.00000000
     58.18171429	     -6.88441428	     -6.93578802	      1.27405484	      1.08248845	      0.92938555	      0.52517177	     11.82732491	      6.36747015	    -18.91916783	     12.34503252	     12.34503252	     10.06651118	      8.70696133	     -2.81107439	     41.60545390	    -16.92414435	      1.74293602	     55.66727015	     55.66727015	      7.18298086	    -17.80790520	     11.57005019	    -13.04372815	      5.74983797	      3.41270088	     27.81138945	    -18.83977204	      5.88580367	     52.45587541	     45.17411979	      0.00000000	      0.00000000	     -0.80404359	     -7.73489994	     -6.18228520	     36.01695105	     47.41667088	      0.00000000	      0.00000000
     58.19342857	     -7.03576198	     -7.07097062	      1.32661214	      1.08110335	      0.92870388	      0.52509310	     11.31991799	      6.61329939	    -18.78741985	     11.95250498	     11.95250498	     10.28099837	      8.66890396	     -3.18149452	     42.23163734	    -16.82915894	      1.75297545	     52.71608053	     52.71608053	      7.16897600	    -17.56492300	     11.75867220	    -12.95741320	      5.90879519	      3.87287150	     29.32850239	    -19.92651713	      7.27479618	     55.58612271	     45.03040709	      0.00000000	      0.00000000	     -0.49512410	     -7.44416389	     -6.91045119	     30.20557429	     47.45211296	      0.00000000	      0.00000000
     58.20514286	     -7.09301257	     -7.13002243	      1.37353389	      1.07986286	      0.92809631	      0.52489028	     10.71834206	      6.75761391	    -18.65890700	     11.62262178	     11.62262178	     10.64517356	      8.73579936	     -3.29949371	     42.53966314	    -16.61229318	      1.76099508	     49.52088375	     49.52088375	      7.21347361	    -17.23725593	     12.08822089	    -13.02423642	      5.94677408	      3.61729335	     31.44650241	    -19.67277281	      7.07240869	     57.66116471	     44.98136614	      0.00000000	      0.00000000	     -2.08963787	     -7.63604347	     -7.06982357	     28.76629742	     47.43728580	      0.00000000	      0.00000000
     58.21685714	     -7.29167309	     -7.37208860	      1.39335322	      1.07861897	      0.92704058	      0.52468249	     10.38359596	      7.04990784	    -18.65660559	     11.51566385	     11.51566385	     11.06511355	      8.77190418	     -3.48454286	     42.99248919	    -16.58273856	      1.84907450	     46.31886049	     46.31886049	      7.33896345	    -16.58973222	     12.44607343	    -12.81694239	      6.17104601	      4.12243266	     33.29484102	    -20.05438022	      6.79850797	     58.70795539	     44.96597408	      0.00000000	      0.00000000	     -3.45219261	     -7.74793885	     -7.13402640	     27.99779450	     47.42198115	      0.00000000	      0.00000000
     58.22857143	     -7.23251057	     -7.38421124	      1.46736863	      1.07778203	      0.92654585	      0.52412271	      9.43447663	      7.18328696	    -18.51038254	     10.80932961	     10.80932961	     11.35980384	      8.98902199	     -3.54487310	     42.81701001	    -16.28280727	      1.79448990	     42.80860481	     42.80860481	      7.41744508	    -15.93719138	     12.57293926	    -13.05369597	      6.21795704	      3.03211249	     35.39960921	    -19.07832664	      7.01066287	     62.51977550	     44.84187658	      0.00000000	      0.00000000	     -5.17324996	     -7.95121212	     -7.16945146	     26.03189803	     47.39004582	      0.00000000	      0.00000000
     58.24028571	     -7.29219617	     -7.51990519	      1.49978597	      1.07702371	      0.92566651	      0.52354081	      8.71320234	      7.40401216	    -18.44500815	     10.31151293	     10.31151293	     11.68883149	      9.22113033	     -3.70388844	     42.73116516	    -16.15162388	      1.67708703	     39.36024719	     39.36024719	      7.52448457	    -14.97254734	     12.71371184	    -13.02710833	      6.36854064	      2.95907307	     37.03431087	    -19.01169111	      7.11811981	     65.50918164	     44.74962954	      0.00000000	      0.00000000	     -6.53837780	     -8.05828107	     -7.23527997	     24.84658805	     47.36981196	      0.00000000	      0.00000000
     58.25200000	     -7.34376698	     -7.80549991	      1.55304028	      1.07646296	      0.92464511	      0.52283829	      7.90816895	      7.79189807	    -18.47575918	      9.67478850	      9.67478850	     11.88010177	      9.58493951	     -4.11701543	     42.58148015	    -16.14083737	      1.60890434	     35.97951443	     35.97951443	      7.47027237	    -13.86887054	     12.33361664	    -13.09029055	      6.70227430	      3.71701248	     37.44249438	    -20.30030737	      7.26420236	     71.48038895	     44.57952283	      0.00000000	      0.00000000	     -7.33991739	     -8.09833834	     -7.34269283	     23.74205553	     47.33387102	      0.00000000	      0.00000000
     58.26371429	     -7.37341314	     -8.00089808	      1.59806965	      1.07619620	      0.92370546	      0.52196640	      7.04652794	      8.07452708	    -18.47223692	      9.04527483	      9.04527483	     12.15819594	      9.91866445	     -4.22353300	     42.25978685	    -16.05964182	      1.30337006	     32.71144460	     32.71144460	      7.66785651	    -12.66335779	     12.78784305	    -13.02064733	      6.94343718	      3.45266598	     39.11740032	    -19.72970817	      6.90736988	     74.07851938	     44.52410479	      0.00000000	      0.00000000	     -8.82518981	     -8.15732812	     -7.30334142	     23.07039690	     47.28468876	      0.00000000	      0.00000000
     58.27542857	     -7.50142685	     -8.23377163	      1.60643953	      1.07600364	      0.92256266	      0.52094965	      6.35812837	      8.35982041	    -18.43524474	      8.54925529	      8.54925529	     12.46358255	     10.22577050	     -4.34423764	     41.97038128	    -15.99712072	      0.92826150	     29.64833886	     29.64833886	      7.76843287	    -11.49953700	     13.35119669	    -12.79187961	      7.20805630	      3.50032378	     40.76696515	    -19.47304620	      6.62474844	     76.05988534	     44.48034602	      0.00000000	      0.00000000	    -10.12716220	     -8.18413788	     -7.30128156	     22.67581760	     47.25165121	      0.00000000	      0.00000000
     58.28714286	     -7.33672488	     -8.46719624	      1.64417216	      1.07649163	      0.92175526	      0.51983491	      5.00357215	      8.73947759	    -18.43892794	      7.46583365	      7.46583365	     12.60333695	     10.99462684	     -4.39664545	     41.34775698	    -15.99393498	      0.28941467	     27.05168144	     27.05168144	      8.10773324	    -10.22872831	     14.05405446	    -12.94643621	      7.45916644	      3.02660955	     41.86266538	    -18.68140479	      6.39207764	     80.28413230	     44.36734019	      0.00000000	      0.00000000	    -11.95741418	     -8.25238055	     -7.25302401	     22.62772149	     47.18406015	      0.00000000	      0.00000000
     58.29885714	     -7.33592269	     -8.62833833	      1.65438089	      1.07699003	      0.92074024	      0.51844404	      3.99916834	      8.96065086	    -18.39565459	      6.73542072	      6.73542072	     12.83489592	     11.49115268	     -4.48170953	     40.79920699	    -15.87809240	     -0.53484851	     24.71265491	     24.71265491	      8.14832934	     -9.22134205	     14.80719494	    -12.79542899	      7.69759243	      3.03363176	     42.95866083	    -18.32703814	      6.06405085	     83.36247909	     44.29337747	      0.00000000	      0.00000000	    -13.32913612	     -8.28167269	     -7.19051118	     22.76563006	     47.12581480	      0.00000000	      0.00000000
     58.31057143	     -7.30187812	     -8.85038924	      1.66244445	      1.07777485	      0.91964927	      0.51697593	      2.87930215	      9.26033141	    -18.36967814	      5.88430026	      5.88430026	     13.05213142	     12.09632748	     -4.50791609	     40.29169400	    -15.82018603	     -1.40567420	     22.97500088	     22.97500088	      8.15734623	     -8.38608522	     15.52669611	    -12.74681954	      7.97097915	      2.98156800	     43.80371249	    -17.87527938	      5.61965101	     87.15572699	     44.20381485	      0.00000000	      0.00000000	    -14.89599570	     -8.28832748	     -7.05312382	     23.16394276	     47.04187655	      0.00000000	      0.00000000
